<svg height="512" viewBox="0 0 42 60" width="512" xmlns="http://www.w3.org/2000/svg"><g id="019---Trash-Can" fill="none"><g id="Icons" transform="translate(1 1)"><path id="Shape" d="m38 16c-2.89 40.34-2.54 35.4-2.87 40.14-.073646 1.0495509-.9478716 1.8625807-2 1.86h-26.27c-1.05212839.0025807-1.92635396-.8104491-2-1.86-.3-4.47.14 1.86-2.86-40.14z" fill="#549414"/><path id="Shape" d="m35 16c-2.89 40.34-2.54 35.4-2.87 40.14-.073646 1.0495509-.9478716 1.8625807-2 1.86h-23.27c-1.05212839.0025807-1.92635396-.8104491-2-1.86-.3-4.47.14 1.86-2.86-40.14z" fill="#60a917"/><circle id="Oval" cx="20" cy="32" fill="#ffeb3a" r="12"/><path id="Shape" d="m24.57 27.09c-.3354107-.0825897-.6384177-.2636973-.87-.52-.9246471-1.0667129-2.2903765-1.6462251-3.7-1.57-5.65 0-6.79 9-7 12.28-.0169794.2309896.0865466.4543667.2737722.5907158.1872256.136349.4315944.1663301.6462278.0792842 3.48-1.47 13.08-2.49 13.08-6.95 0-2.5-1.39-3.61-2.43-3.91z" fill="#008a00"/><path id="Shape" d="m38 16h-36c-1.1045695 0-2-.8954305-2-2s.8954305-2 2-2h36c1.1045695 0 2 .8954305 2 2s-.8954305 2-2 2z" fill="#007900"/><path id="Shape" d="m35 16h-33c-1.1045695 0-2-.8954305-2-2s.8954305-2 2-2h33c1.1045695 0 2 .8954305 2 2s-.8954305 2-2 2z" fill="#008a00"/><path id="Shape" d="m38 12h-36c0-5 1-12 7-12h22c6 0 7 7 7 12z" fill="#549414"/><path id="Shape" d="m35 12h-33c0-5 1-12 7-12h19c6 0 7 7 7 12z" fill="#60a917"/><path id="Shape" d="m10 0h20v6c0 1.1045695-.8954305 2-2 2h-16c-1.1045695 0-2-.8954305-2-2z" fill="#008a00"/></g><g id="Outline" fill="#000"><path id="Shape" d="m23.75 22.36c2.9882265.7768482 5.5123947 2.7737997 6.9559746 5.5030977 1.44358 2.729298 1.6736536 5.9396418.6340254 8.8469023-.1877768.5219091.0830909 1.0972232.605 1.285s1.0972232-.0830909 1.285-.605c1.241566-3.4449929.9726106-7.2538572-.7407443-10.4901942s-4.712192-5.5999698-8.2592557-6.5098058c-.355579-.1229051-.7500498-.0358365-1.0208565.2253258-.2708068.2611624-.3721165.652218-.2621809 1.0120183.1099355.3598003.4125103.6274506.7830374.6926559z"/><path id="Shape" d="m8.77 37.39c.18777683.5219091.76309091.7927768 1.285.605.5219091-.1877768.7927768-.7630909.605-1.285-1.03962823-2.9072605-.80955455-6.1176043.6340254-8.8469023 1.4435799-2.729298 3.9677481-4.7262495 6.9559746-5.5030977.3705271-.0652053.6731019-.3328556.7830374-.6926559.1099356-.3598003.0086259-.7508559-.2621809-1.0120183-.2708067-.2611623-.6652775-.3482309-1.0208565-.2253258-3.5335973.915796-6.5193546 3.2750402-8.22747929 6.5010752-1.70812468 3.2260351-1.98121491 7.0215854-.75252071 10.4589248z"/><path id="Shape" d="m28.24 41.27c-3.8472985 3.35941-9.5008901 3.6286286-13.65.65-.4473506-.325848-1.074152-.2273506-1.4.22s-.2273506 1.074152.22 1.4c4.8977333 3.5504585 11.6025088 3.23059 16.14-.77.3074567-.2221503.462757-.5991309.4009937-.9733845-.0617633-.3742535-.3299563-.6813448-.692489-.7929263-.3625327-.1115816-.7569879-.0084425-1.0185047.2663108z"/><path id="Shape" d="m13 38.21c-.0303554.4625633.1317663.9171126.4479931 1.2560623s.758452.5321734 1.2220069.5339377c.64 0 .06-.11 4.16-1.2 4.53-1.22 10.17-2.72 10.17-6.8.1247486-1.7616216-.7081105-3.4540829-2.18-4.43l.88-.85c.397645-.3865993.4065993-1.022355.02-1.42s-1.022355-.4065993-1.42-.02l-1.24 1.21c-1.1050515-1.010726-2.5634793-1.5459618-4.06-1.49-6.63 0-7.8 10.11-8 13.21zm3.45-.83c4.22-5.75 7.63-7.86 8.66-8.41.07 0 .11.06.18.08.29.08 1.71.61 1.71 2.95 0 3-7.07 4.37-10.55 5.38zm4.55-10.38c.838511-.0264253 1.6641066.2114582 2.36.68-3.1148102 2.1210411-5.8243034 4.7831181-8 7.86.52-3.46 1.95-8.54 5.64-8.54z"/><path id="Shape" d="m40 12.18c-.24-10.02-4.45-12.18-8-12.18h-22c-3.55 0-7.76 2.16-8 12.18-1.19365174.4266052-1.99035897 1.5574052-1.99035897 2.825s.79670723 2.3983948 1.99035897 2.825l2.81 39.38c.11046907 1.5743263 1.42180742 2.793871 3 2.79h26.33c1.5781926.003871 2.8895309-1.2156737 3-2.79l2.81-39.38c1.1975396-.415934 2.0043723-1.5397184 2.0155906-2.8073842.0112183-1.2676657-.7755996-2.4055532-1.9655906-2.8426158zm-10-10.18v5c0 .55228475-.4477153 1-1 1h-16c-.5522847 0-1-.44771525-1-1v-5zm-20 0v5c0 1.65685425 1.3431458 3 3 3h16c1.6568542 0 3-1.34314575 3-3v-5c2.63 0 5.75 1.77 6 10h-34c.25-8.23 3.37-10 6-10zm24.14 56h-26.28c-.52606419.0012903-.96317698-.4052246-1-.93l-.07-1.07h28.42l-.07 1.07c-.036823.5247754-.4739358.9312903-1 .93zm1.21-4h-28.7l-2.58-36h33.86zm3.65-38h-36c-.55228475 0-1-.4477153-1-1s.44771525-1 1-1h36c.5522847 0 1 .4477153 1 1s-.4477153 1-1 1z"/></g></g></svg>