<svg height={160} viewBox="0 0 64 64" width={160} xmlns="http://www.w3.org/2000/svg"><path d="m39 16h-32l2-13h28z" fill="#57565c"/><path d="m39 22-.03 1-.97 38h-30l-.97-38-.03-1z" fill="#57565c"/><g fill="#e0e0e2"><path d="m30 26h4v31h-4z"/><path d="m21 26h4v31h-4z"/><path d="m12 26h4v31h-4z"/></g><path d="m13 27h3v-1h-4v31h1z" fill="#c6c5ca"/><path d="m22 27h3v-1h-4v31h1z" fill="#c6c5ca"/><path d="m31 27h3v-1h-4v31h1z" fill="#c6c5ca"/><path d="m4 16h38v6h-38z" fill="#e0e0e2"/><path d="m32 3-.11 1-.78 7-.11 1h-16l-.11-1-.78-7-.11-1z" fill="#e0e0e2"/><path d="m51 25-2.31 7.7a16.061 16.061 0 0 0 -9.38 0l-2.31-7.7 1.88 1.5v.01l3.12 2.49 2-4 3 2z" fill="#2d2d30"/><path d="m34 35.51a16 16 0 0 1 26 12.49c0 8.84-7.16 13-16 13a23.845 23.845 0 0 1 -5.98-.72v-.01c-5.88-1.53-10.02-5.55-10.02-12.27a15.982 15.982 0 0 1 6-12.49z" fill="#3e3d42"/><path d="m54.821 36.226a15.932 15.932 0 0 1 4.179 10.774c0 8.84-7.16 13-16 13a23.845 23.845 0 0 1 -5.98-.72v-.01a14.786 14.786 0 0 1 -6.215-3.189 14.057 14.057 0 0 0 7.215 4.189v.01a23.845 23.845 0 0 0 5.98.72c8.84 0 16-4.16 16-13a15.942 15.942 0 0 0 -5.179-11.774z" fill="#2d2d30"/><path d="m45 30h1v3h-1z" fill="#3e3d42"/><ellipse cx="36.5" cy="40" fill="#57565c" rx="4" ry="2.5" transform="matrix(.707 -.707 .707 .707 -17.594 37.525)"/><rect fill="#fff" height="2" rx="1" width="8" x="6" y="17"/><path d="m39 22-.03 1h-31.94l-.03-1z" fill="#2d2d30"/><path d="m32 3-.11 1h-17.78l-.11-1z" fill="#acabb1"/></svg>